<svg xmlns="http://www.w3.org/2000/svg" viewBox="0 0 16.5 23.5"><defs><style>.cls-1{fill:#22a0c3;stroke:#22a0c3;stroke-width:0.5px;}</style></defs><title>Change Password Icon</title><g id="Layer_2" data-name="Layer 2"><g id="Layer_1-2" data-name="Layer 1"><g id="App"><g id="Profile"><g id="Group-5"><g id="Group-4"><g id="noun_1603493_cc" data-name="noun 1603493 cc"><path id="Shape" class="cls-1" d="M14,9.93V6.11A5.79,5.79,0,0,0,8.25.25,5.79,5.79,0,0,0,2.54,6.11V9.93A2.36,2.36,0,0,0,.25,12.36v8.47a2.35,2.35,0,0,0,2.29,2.42H14a2.35,2.35,0,0,0,2.29-2.42V12.36A2.36,2.36,0,0,0,14,9.93ZM3.68,6.11A4.62,4.62,0,0,1,8.25,1.46a4.62,4.62,0,0,1,4.57,4.65V9.93H3.68ZM15.11,20.83A1.18,1.18,0,0,1,14,22H2.54a1.18,1.18,0,0,1-1.15-1.21V12.36a1.19,1.19,0,0,1,1.15-1.22H14a1.19,1.19,0,0,1,1.15,1.22ZM8.25,13.57a3,3,0,0,0,0,6.05,3,3,0,0,0,0-6.05Zm0,4.84a1.82,1.82,0,0,1,0-3.63,1.82,1.82,0,0,1,0,3.63Z"/></g></g></g></g></g></g></g></svg>