<svg xmlns="http://www.w3.org/2000/svg" viewBox="0 0 23.54 25.54"><defs><style>.cls-1{fill:#fff;stroke:#fff;stroke-width:0.54px;}</style></defs><title>Delete Icon</title><g id="Layer_2" data-name="Layer 2"><g id="Layer_1-2" data-name="Layer 1"><g id="App"><g id="Deleting-a-Float"><g id="Group-8"><g id="Group-5"><g id="noun_1447967_cc" data-name="noun 1447967 cc"><g id="Group"><path id="Shape" class="cls-1" d="M22.66,3.49H15.92V2.26a2.06,2.06,0,0,0-2.08-2H10a2.05,2.05,0,0,0-2.08,2V3.49h-7A.58.58,0,0,0,.27,4a.57.57,0,0,0,.57.54H3.15v18A2.8,2.8,0,0,0,6,25.27H17.85a2.8,2.8,0,0,0,2.84-2.72v-18h2A.57.57,0,0,0,23.27,4,.59.59,0,0,0,22.66,3.49ZM9,2.26a.92.92,0,0,1,1-.9h3.9a.92.92,0,0,1,1,.9V3.49H9ZM19.56,22.55a1.66,1.66,0,0,1-1.71,1.63H6a1.66,1.66,0,0,1-1.7-1.63v-18H19.52v18Z"/><path id="Shape-2" data-name="Shape" class="cls-1" d="M7.77,20.46a.52.52,0,0,0,.5-.53V8.49a.5.5,0,1,0-1,0V19.93A.49.49,0,0,0,7.77,20.46Z"/></g></g></g></g></g></g></g></g></svg>