<svg xmlns="http://www.w3.org/2000/svg" viewBox="0 0 23.5 23.5"><defs><style>.cls-1{fill:#fff;stroke:#fff;stroke-width:0.9px;}</style></defs><title>Edit Icon</title><g id="Layer_2" data-name="Layer 2"><g id="Layer_1-2" data-name="Layer 1"><g id="App"><g id="Deleting-a-Float"><g id="Group-8"><g id="noun_edit_1271778" data-name="noun edit 1271778"><path id="Shape" class="cls-1" d="M1,23.05a.63.63,0,0,0,.19,0l6.51-2.17a.3.3,0,0,0,.11-.06L22,6.64a3.63,3.63,0,1,0-5.13-5.13L2.72,15.65a.41.41,0,0,0-.07.11L.48,22.28a.58.58,0,0,0,.56.77ZM15.58,3.61l4.31,4.31L7.64,20.16l-4.29-4.3Zm1.68-1.68a3,3,0,0,1,4.31,4.3L20.3,7.49,16,3.2ZM3.06,16.41l4,4L1,22.46Z"/></g></g></g></g></g></g></svg>