<svg xmlns="http://www.w3.org/2000/svg" viewBox="0 0 17.5 23.5"><defs><style>.cls-1{fill:#22a0c3;stroke:#22a0c3;stroke-width:0.5px;}</style></defs><title>Log Out Icon</title><g id="Layer_2" data-name="Layer 2"><g id="Layer_1-2" data-name="Layer 1"><g id="App"><g id="Profile"><g id="Group-5"><g id="noun_1680407_cc" data-name="noun 1680407 cc"><g id="Group"><path id="Shape" class="cls-1" d="M.75.25A.55.55,0,0,0,.28.94V19.07a.55.55,0,0,0,.36.5l11,3.66a.58.58,0,0,0,.73-.49V19.6H16.7a.56.56,0,0,0,.55-.53V11.75a.55.55,0,0,0-1.1,0v6.8H12.32V6a.52.52,0,0,0-.3-.47L3.16,1.3h13V11.9c0,.28.2,1,.49,1s.61-.62.61-.9V.77A.56.56,0,0,0,16.7.25Zm.62,1.37,9.86,4.71V22L1.37,18.7Z"/></g></g></g></g></g></g></g></svg>