<svg xmlns="http://www.w3.org/2000/svg" viewBox="0 0 20 20"><defs><style>.cls-1{fill:#22a0c3;}</style></defs><title>Notification Icon</title><g id="Layer_2" data-name="Layer 2"><g id="Layer_1-2" data-name="Layer 1"><g id="App"><g id="Profile"><g id="Group-5"><g id="Group"><g id="noun_534810_cc" data-name="noun 534810 cc"><path id="Shape" class="cls-1" d="M16.67,6.67A3.34,3.34,0,1,1,20,3.33,3.35,3.35,0,0,1,16.67,6.67Zm0-5a1.67,1.67,0,1,0,1.66,1.66A1.66,1.66,0,0,0,16.67,1.67ZM14.87,20H3.46A3.46,3.46,0,0,1,0,16.53V5.13A3.46,3.46,0,0,1,3.46,1.67h8.21a.83.83,0,1,1,0,1.66H3.46a1.8,1.8,0,0,0-1.79,1.8v11.4a1.79,1.79,0,0,0,1.79,1.8H14.87a1.8,1.8,0,0,0,1.8-1.8V8.33a.83.83,0,0,1,1.66,0v8.2A3.46,3.46,0,0,1,14.87,20Z"/></g></g></g></g></g></g></g></svg>
