<svg xmlns="http://www.w3.org/2000/svg" viewBox="0 0 25.75 13.61"><defs><style>.cls-1{fill:#22a0c3;stroke:#22a0c3;}</style></defs><title>Privacy Policy Icon</title><g id="Layer_2" data-name="Layer 2"><g id="Layer_1-2" data-name="Layer 1"><g id="App"><g id="Profile"><g id="Group-5"><g id="noun_1595653_cc" data-name="noun 1595653 cc"><path id="Shape" class="cls-1" d="M6.77.5H19a6.13,6.13,0,0,1,4.42,1.86A6.26,6.26,0,0,1,25.25,6.8a6.4,6.4,0,0,1-1.86,4.47A6.16,6.16,0,0,1,19,13.11a5.42,5.42,0,0,1-3.73-1.54,3.68,3.68,0,0,0-2.38-1.09,3.7,3.7,0,0,0-2.39,1.09,5.37,5.37,0,0,1-3.72,1.54,6.18,6.18,0,0,1-4.41-1.84A6.4,6.4,0,0,1,.5,6.8,6.23,6.23,0,0,1,2.35,2.36,6.13,6.13,0,0,1,6.77.5ZM18.64,5a1.25,1.25,0,0,0-.94.4,1.31,1.31,0,0,0-.38.94,1.34,1.34,0,0,0,.38,1,1.31,1.31,0,0,0,.94.38,1.33,1.33,0,0,0,.94-.38,1.3,1.3,0,0,0,.39-1,1.28,1.28,0,0,0-.39-.94A1.27,1.27,0,0,0,18.64,5Zm-1.53-.21A2.16,2.16,0,0,1,20.8,6.37a2.25,2.25,0,0,1-.62,1.54,2.18,2.18,0,0,1-3.07-3.09Zm-10-.62a2.22,2.22,0,0,1,1.53.62,2.21,2.21,0,0,1,0,3.09,2.17,2.17,0,0,1-3.08,0,2.24,2.24,0,0,1,0-3.09A2.24,2.24,0,0,1,7.12,4.2Zm.94,1.23A1.27,1.27,0,0,0,7.12,5a1.25,1.25,0,0,0-.94.4,1.29,1.29,0,0,0-.4.94A1.33,1.33,0,0,0,7.12,7.7,1.3,1.3,0,0,0,8.44,6.37,1.31,1.31,0,0,0,8.06,5.43Zm4.82-4.08H6.77A5.4,5.4,0,0,0,2.93,3,5.46,5.46,0,0,0,1.34,6.8,5.61,5.61,0,0,0,3,10.68a5.41,5.41,0,0,0,3.82,1.58A4.76,4.76,0,0,0,10,10.92a4.35,4.35,0,0,1,2.91-1.28,4.39,4.39,0,0,1,2.91,1.28A4.74,4.74,0,0,0,19,12.26a5.39,5.39,0,0,0,3.81-1.58A5.58,5.58,0,0,0,24.43,6.8,5.48,5.48,0,0,0,19,1.35Z"/></g></g></g></g></g></g></svg>