<svg xmlns="http://www.w3.org/2000/svg" viewBox="0 0 21.28 18.28"><defs><style>.cls-1{fill:#22a0c3;stroke:#22a0c3;stroke-width:0.5px;}</style></defs><title>Spread the Sauce Icon</title><g id="Layer_2" data-name="Layer 2"><g id="Layer_1-2" data-name="Layer 1"><g id="App"><g id="Profile"><g id="Group-5"><g id="noun_1917944_cc" data-name="noun 1917944 cc"><path id="Shape" class="cls-1" d="M10.64,18a1.72,1.72,0,0,1-1.36-.67,21,21,0,0,0-3.45-3.49l-1-.75C2.46,11.41-.8,9.05.58,4.53A6.1,6.1,0,0,1,5,.46,6.43,6.43,0,0,1,10.64,1.7,6.55,6.55,0,0,1,16.33.46,6.1,6.1,0,0,1,20.7,4.53c1.38,4.52-1.88,6.88-4.24,8.59-.35.28-.7.52-1,.75A21.44,21.44,0,0,0,12,17.36,1.7,1.7,0,0,1,10.64,18ZM6.57,1.74a5.09,5.09,0,0,0-1.22.15A4.61,4.61,0,0,0,2,5c-1.07,3.51,1.36,5.27,3.7,7,.37.26.72.52,1,.77a22,22,0,0,1,3.72,3.75.15.15,0,0,0,.15.07.23.23,0,0,0,.16-.07,22.25,22.25,0,0,1,3.71-3.75c.33-.25.68-.51,1.05-.77,2.35-1.69,4.75-3.45,3.7-7A4.63,4.63,0,0,0,16,1.89a5,5,0,0,0-4.77,1.33.79.79,0,0,1-1.07,0A5.3,5.3,0,0,0,6.57,1.74Z"/></g></g></g></g></g></g></svg>