<svg xmlns="http://www.w3.org/2000/svg" viewBox="0 0 14.1 26.8"><defs><style>.cls-1{fill:#22a0c3;stroke:#22a0c3;stroke-width:0.4px;}</style></defs><title>Terms Icon</title><g id="Layer_2" data-name="Layer 2"><g id="Layer_1-2" data-name="Layer 1"><g id="App"><g id="Profile"><g id="Group-5"><g id="noun_1073052_cc" data-name="noun 1073052 cc"><g id="Group"><path id="Shape" class="cls-1" d="M11.76.2a.58.58,0,0,0-.25.09C4.52,4.5,1.39,9.8,1.39,16.1A25.68,25.68,0,0,0,1.94,21Q1,23.37.23,25.81a.6.6,0,0,0,.12.59.59.59,0,0,0,.57.19.61.61,0,0,0,.45-.4c.51-1.54,1-3.05,1.62-4.51,4.42-2.17,8.27-5.8,10-9.84a.62.62,0,0,0,0-.53l-1-1.81h1.37a.59.59,0,0,0,.59-.6A18.65,18.65,0,0,0,12.35.53.6.6,0,0,0,11.76.2Zm-.22,1.51A17.76,17.76,0,0,1,12.69,8.3H10.93a.6.6,0,0,0-.53.89l1.34,2.43a19.28,19.28,0,0,1-8.06,8.27A104.91,104.91,0,0,1,10,7.1a.62.62,0,0,0,0-.62.59.59,0,0,0-.56-.29.62.62,0,0,0-.47.31A107.09,107.09,0,0,0,2.81,18.87a18.93,18.93,0,0,1-.23-2.77C2.58,10.37,5.23,5.7,11.54,1.71Z"/></g></g></g></g></g></g></g></svg>